<svg id="Capa_1" enable-background="new 0 0 512 512" height="512" viewBox="0 0 512 512" width="512" xmlns="http://www.w3.org/2000/svg">
    <path d="m489.463 38.951h-193.248l1.529.715 72.508 72.508-59.866 59.866-72.508-72.508-2.993-6.4c-.963-2.058-3.046-3.358-5.318-3.319-3.269.057-6.42-1.217-8.732-3.528l-1.107-1.107c-4.707-4.707-4.707-12.338 0-17.045l29.182-29.182h-226.373c-8.305 0-15.037 6.732-15.037 15.037v295.035c0 8.305 6.732 15.037 15.037 15.037h466.926c8.305 0 15.037-6.732 15.037-15.037v-295.035c0-8.305-6.732-15.037-15.037-15.037z" fill="#756e78"/>
    <path d="m489.463 38.951h-24.963v239.306c0 36.342-29.461 65.803-65.803 65.803h-391.197v4.963c0 8.305 6.732 15.037 15.037 15.037h466.926c8.305 0 15.037-6.732 15.037-15.037v-295.035c0-8.305-6.732-15.037-15.037-15.037z" fill="#544f57"/>
    <path d="m327.905 69.826 42.348 42.348-59.866 59.866-72.508-72.508-2.993-6.4c-.963-2.058-3.046-3.358-5.318-3.319-3.269.057-6.42-1.217-8.732-3.528l-1.107-1.107c-4.177-4.177-4.646-10.656-1.411-15.351h-180.818v228.026h437v-228.027z" fill="#93c8a5"/>
    <path d="m434.5 69.826v157.891c0 27.689-22.446 50.135-50.135 50.135h-346.865v20h437v-228.026z" fill="#69af81"/>
    <path d="m326.247 457.762h-140.494l17.92-93.703h104.654z" fill="#efecef"/>
    <path d="m308.327 364.059h-36.175l5.704 29.826c4.355 22.77-13.098 43.877-36.281 43.877h-51.997l-3.825 20h140.494z" fill="#d3ced5"/>
    <path d="m355.114 494.019h-198.228c-3.295 0-5.966-2.671-5.966-5.966v-12.163c0-10.012 8.116-18.128 18.128-18.128h173.901c10.012 0 18.128 8.116 18.128 18.128v12.163c.002 3.296-2.669 5.966-5.963 5.966z" fill="#efecef"/>
    <path d="m252.795 63.521h102.542v84.663h-102.542z" fill="#f6e781" transform="matrix(.707 .707 -.707 .707 163.908 -184.003)"/>
    <path d="m297.745 39.666-15 15 22.01 22.01c14.082 14.082 14.082 36.913 0 50.995l-19.368 19.368 25 25 59.866-59.866z" fill="#f4dd45"/>
    <path d="m207.918 169.581h25.149v39.689h-25.149z" fill="#cbafaf" transform="matrix(.707 -.707 .707 .707 -69.364 211.393)"/>
    <g fill="#b78e8e">
        <path d="m297.745 39.666-6.4-2.993c-2.059-.963-3.359-3.046-3.319-5.318.057-3.269-1.217-6.42-3.528-8.732l-1.107-1.107c-4.707-4.707-12.338-4.707-17.045 0l-46.617 46.617c-4.707 4.707-4.707 12.338 0 17.045l1.107 1.107c2.312 2.312 5.463 3.585 8.732 3.528 2.272-.039 4.355 1.261 5.318 3.319l2.993 6.4z"/>
        <path d="m370.252 112.174 2.993 6.4c.963 2.059 3.046 3.359 5.318 3.319 3.269-.057 6.42 1.217 8.732 3.528l1.107 1.107c4.707 4.707 4.707 12.338 0 17.045l-46.617 46.617c-4.707 4.707-12.338 4.707-17.045 0l-1.107-1.107c-2.312-2.312-3.585-5.463-3.528-8.732.039-2.272-1.261-4.355-3.319-5.318l-6.4-2.993z"/>
        <path d="m220.116 144.613h63.285v27.094h-63.285z" transform="matrix(.707 -.707 .707 .707 -38.098 224.344)"/>
        <path d="m202.022 188.738-85.987 85.987c-5.29 5.29-5.29 13.868 0 19.158s13.868 5.29 19.158 0l85.987-85.987z"/>
        <path d="m203.312 270.223h143.901v27.628h-143.901z"/>
    </g>
    <path d="m203.312 277.852h143.901v20h-143.901z" fill="#9d6b6b"/>
    <path d="m334.467 270.223-4.301-17.63c-1.04-4.262-4.858-7.261-9.245-7.261h-91.318c-4.387 0-8.205 2.999-9.245 7.261l-4.301 17.63z" fill="#cbafaf"/>
    <path d="m489.463 31.45h-179.151c-.365-.963-.935-1.866-1.71-2.641-2.932-2.93-7.68-2.928-10.607 0l-1.835 1.835-.649-.304c-.204-4.87-2.25-9.563-5.709-13.021l-1.107-1.107c-7.64-7.641-20.01-7.642-27.651 0l-15.241 15.238h-223.266c-12.427 0-22.537 10.11-22.537 22.538v295.035c0 12.427 10.11 22.537 22.537 22.537h172.066l-15.051 78.703h-10.503c-14.131 0-25.628 11.497-25.628 25.628v12.163c0 7.425 6.041 13.465 13.466 13.465h198.227c7.425 0 13.466-6.041 13.466-13.465v-12.163c0-14.131-11.497-25.628-25.628-25.628h-10.503l-15.051-78.703h172.066c12.427 0 22.537-10.11 22.537-22.537v-295.035c-.001-12.428-10.111-22.538-22.538-22.538zm-129.817 80.723-49.26 49.259c-7.541-7.541-54.836-54.836-61.901-61.901l49.259-49.259c14.991 14.991 52.115 52.115 61.902 61.901zm22.346 18.551 1.107 1.107c1.775 1.775 1.775 4.664 0 6.438l-46.617 46.617c-1.773 1.774-4.664 1.774-6.438 0l-1.107-1.107c-.869-.868-1.354-2.071-1.333-3.296.071-4.036-1.703-7.823-4.697-10.357l45.432-45.432c2.533 2.993 6.3 4.741 10.355 4.697 1.261-.016 2.431.465 3.298 1.333zm-260.654 157.857c-2.357-2.357-2.357-6.194 0-8.552l45.077-45.077c2.929-2.929 2.929-7.678 0-10.606-2.93-2.929-7.678-2.929-10.607 0l-45.077 45.077c-5.655 5.655-7.412 13.754-5.273 20.929h-60.458v-213.026h163.71c.167 4.971 2.181 9.621 5.715 13.154l1.107 1.107c3.46 3.459 8.151 5.505 13.022 5.71l.303.648-1.835 1.835c-2.929 2.929-2.929 7.678 0 10.606 2.93 2.929 7.678 2.929 10.607 0l.249-.249 16.068 16.068-34.211 34.211c-1.269-.914-2.8-1.416-4.384-1.416-1.989 0-3.896.79-5.304 2.197l-17.783 17.783c-2.639 2.639-2.9 6.757-.782 9.688l-11.033 11.033c-2.929 2.929-2.929 7.678 0 10.606 2.93 2.929 7.678 2.929 10.607 0l10.965-10.965 8.552 8.552-80.684 80.684c-2.358 2.36-6.194 2.36-8.551.003zm104.295-86.838-17.458-17.458 7.176-7.176 17.458 17.458zm13.33-22.236-8.551-8.552 34.142-34.142 8.552 8.552zm32.686-152.689c.859-.86 2.002-1.333 3.218-1.333 1.217 0 2.359.473 3.219 1.333l1.108 1.108c.868.868 1.354 2.069 1.332 3.299-.069 4.036 1.705 7.821 4.697 10.354l-45.431 45.431c-2.486-2.935-5.973-4.653-10.432-4.696-1.201 0-2.371-.483-3.221-1.333l-1.108-1.108c-.859-.859-1.333-2.002-1.333-3.219 0-1.216.474-2.359 1.334-3.219zm45.528 423.444h-73.732c-4.143 0-7.5 3.358-7.5 7.5s3.357 7.5 7.5 7.5h99.506c5.86 0 10.628 4.768 10.628 10.628v10.628h-195.158v-10.628c0-5.86 4.768-10.629 10.628-10.628h39.396c4.143 0 7.5-3.358 7.5-7.5s-3.357-7.5-7.5-7.5h-13.623l15.051-78.703h92.252zm179.823-101.24c0 4.156-3.381 7.537-7.537 7.537-13.68 0-453.237 0-466.926 0-4.156 0-7.537-3.381-7.537-7.537v-295.034c0-4.156 3.381-7.537 7.537-7.537h208.267l-15.875 15.875h-177.429c-4.143 0-7.5 3.358-7.5 7.5v228.026c0 4.142 3.357 7.5 7.5 7.5h437c4.143 0 7.5-3.358 7.5-7.5v-66.162c0-4.142-3.357-7.5-7.5-7.5s-7.5 3.358-7.5 7.5v58.662h-112.287v-20.128c0-4.142-3.357-7.5-7.5-7.5h-6.855l-2.906-11.909c-1.865-7.644-8.663-12.982-16.531-12.982h-91.317c-7.868 0-14.666 5.339-16.531 12.983l-2.906 11.908h-6.855c-4.143 0-7.5 3.358-7.5 7.5v20.128h-46.48l71.916-71.916c1.305.943 2.845 1.414 4.385 1.414 1.919 0 3.839-.732 5.304-2.197l17.782-17.783c1.407-1.406 2.197-3.314 2.197-5.303 0-1.584-.501-3.116-1.416-4.384l34.211-34.211 16.068 16.068-.25.25c-2.929 2.929-2.929 7.678 0 10.606 2.93 2.929 7.678 2.929 10.607 0l1.835-1.835.649.303c.205 4.87 2.251 9.563 5.709 13.021l1.107 1.107c7.641 7.641 20.009 7.643 27.652 0l46.617-46.617c7.623-7.624 7.623-20.028 0-27.651l-1.107-1.107c-3.459-3.459-8.151-5.505-13.022-5.71l-.303-.648 1.835-1.835c2.929-2.929 2.929-7.678 0-10.606-2.93-2.929-7.678-2.929-10.607 0l-.249.249-24.241-24.241h120.989v119.364c0 4.142 3.357 7.5 7.5 7.5s7.5-3.358 7.5-7.5v-126.864c0-4.142-3.357-7.5-7.5-7.5h-143.488l-15.876-15.876h174.327c4.156 0 7.537 3.381 7.537 7.537zm-286.188-71.299h128.901v12.628h-128.901zm14.794-15 2.038-8.352c.221-.906 1.026-1.539 1.959-1.539h91.317c.933 0 1.738.633 1.959 1.539l2.038 8.353h-99.311z"/>
    <path d="m287.366 322.536h-62.732c-4.143 0-7.5 3.358-7.5 7.5s3.357 7.5 7.5 7.5h62.732c4.143 0 7.5-3.358 7.5-7.5s-3.357-7.5-7.5-7.5z"/>
</svg>