<?xml version="1.0" encoding="UTF-8" standalone="no"?>
<svg
   xmlns:dc="http://purl.org/dc/elements/1.1/"
   xmlns:cc="http://creativecommons.org/ns#"
   xmlns:rdf="http://www.w3.org/1999/02/22-rdf-syntax-ns#"
   xmlns:svg="http://www.w3.org/2000/svg"
   xmlns="http://www.w3.org/2000/svg"
   xmlns:sodipodi="http://sodipodi.sourceforge.net/DTD/sodipodi-0.dtd"
   xmlns:inkscape="http://www.inkscape.org/namespaces/inkscape"
   width="240mm"
   height="145mm"
   viewBox="0 0 240 145"
   version="1.1"
   id="svg8"
   inkscape:export-filename="C:\Users\admin-felipe\Documents\NewMark\resources\fxml\LogoAgu.png"
   inkscape:export-xdpi="400.04999"
   inkscape:export-ydpi="400.04999"
   inkscape:version="1.0.1 (3bc2e813f5, 2020-09-07)"
   sodipodi:docname="LogoAgu.svg">
  <defs
     id="defs2" />
  <sodipodi:namedview
     id="base"
     pagecolor="#ffffff"
     bordercolor="#666666"
     borderopacity="1.0"
     inkscape:pageopacity="0.0"
     inkscape:pageshadow="2"
     inkscape:zoom="0.35"
     inkscape:cx="4.3642851"
     inkscape:cy="242.59526"
     inkscape:document-units="mm"
     inkscape:current-layer="layer2"
     inkscape:document-rotation="0"
     showgrid="false"
     inkscape:snap-page="true"
     inkscape:window-width="1920"
     inkscape:window-height="1017"
     inkscape:window-x="-8"
     inkscape:window-y="-8"
     inkscape:window-maximized="1" />
  <metadata
     id="metadata5">
    <rdf:RDF>
      <cc:Work
         rdf:about="">
        <dc:format>image/svg+xml</dc:format>
        <dc:type
           rdf:resource="http://purl.org/dc/dcmitype/StillImage" />
        <dc:title />
      </cc:Work>
    </rdf:RDF>
  </metadata>
  <g
     inkscape:groupmode="layer"
     id="layer2"
     inkscape:label="Fnd"
     sodipodi:insensitive="true">
    <rect
       style="fill:#000000;stroke:#000000;stroke-width:1;stroke-linejoin:round"
       id="rect1471"
       width="240"
       height="145"
       x="0"
       y="0" />
  </g>
  <g
     inkscape:label="Agu"
     inkscape:groupmode="layer"
     id="layer1"
     sodipodi:insensitive="true">
    <path
       style="fill:#ffffff;stroke-width:0.566898"
       d="m 167.19998,116.51505 c -9.26186,-0.96634 -13.58081,-2.68607 -18.22903,-7.25852 -3.42301,-3.36718 -5.38378,-7.65056 -5.73236,-12.52253 -0.27974,-3.909577 -0.2615,-4.015722 7.20515,-41.953847 l 2.62193,-13.322107 1.96505,0.06128 c 2.57489,0.08013 6.94697,2.185312 9.45896,4.554418 2.45254,2.313033 2.51988,1.317362 -1.54752,22.878983 -3.4802,18.448751 -3.92727,25.376088 -1.88421,29.19529 1.56505,2.925623 3.15034,4.361923 6.99237,6.335203 2.91686,1.49809 3.55666,1.60055 9.92073,1.58858 5.72285,-0.0107 7.31099,-0.21628 10.00413,-1.29444 6.38058,-2.5544 10.5558,-7.914052 12.90817,-16.569982 1.20706,-4.441631 8.38408,-43.495949 9.92284,-53.996002 0.49271,-3.36212 1.26302,-6.991766 1.71181,-8.065878 1.4444,-3.456887 6.23174,-5.400491 10.48272,-4.255823 2.96646,0.798786 4.57398,2.893937 4.57398,5.961491 0,1.318219 -1.77916,10.914006 -3.95372,21.323984 -2.17455,10.409978 -4.86239,23.774209 -5.97301,29.698311 -3.23243,17.242205 -5.05847,21.641069 -11.4229,27.517389 -5.88802,5.43644 -15.03229,9.02073 -25.98643,10.18592 -5.72953,0.60945 -6.64826,0.6051 -13.03866,-0.0617 z M 95.203803,115.08198 C 84.722005,113.45088 76.648627,107.88712 72.625135,99.521943 69.309814,92.629102 68.446398,87.68278 65.953426,61.301315 64.686589,47.895175 63.542967,36.819381 63.412047,36.688468 c -0.3454,-0.34541 -0.20989,-0.583369 -5.460444,9.588201 -2.655643,5.144621 -7.413988,14.351395 -10.574094,20.459527 -3.160109,6.108109 -5.745651,11.438002 -5.745651,11.844177 0,0.583561 1.189712,0.656581 5.670174,0.348002 4.712371,-0.324562 6.010535,-0.229023 7.685133,0.565628 3.040901,1.443005 4.942813,4.293426 5.192482,7.782024 0.344436,4.812838 0.791697,4.663326 -13.285793,4.440945 L 34.545621,91.521994 30.86078,99.648186 c -4.419101,9.745444 -6.820369,12.633874 -11.027523,13.264794 -5.215428,0.78209 -8.81394,-0.71193 -8.81394,-3.65937 0,-0.81065 1.56206,-4.15124 3.471243,-7.42354 3.767259,-6.457013 19.417624,-36.199633 32.353356,-61.485688 7.932731,-15.506456 8.171105,-15.890733 10.901516,-17.573881 2.647431,-1.631962 3.100792,-1.720731 8.786934,-1.720731 10.338072,0 11.560669,1.468181 12.509777,15.022805 0.338397,4.832828 1.11793,11.774456 1.732296,15.425892 0.614359,3.651415 1.376333,9.901472 1.693274,13.88902 0.316944,3.987547 0.833699,9.418464 1.148341,12.068722 1.675692,14.113951 7.220382,24.060631 15.670878,28.112181 2.646598,1.2689 4.295338,1.6232 8.467078,1.81944 5.87268,0.27629 8.7086,-0.40382 10.34183,-2.48011 1.18709,-1.50915 2.26576,-6.721823 4.03826,-19.51494 1.37302,-9.909765 1.84067,-11.447023 4.04704,-13.303552 1.54418,-1.299364 2.1823,-1.435806 6.71454,-1.435806 4.89648,0 5.04096,0.039 6.47584,1.744192 1.84318,2.190476 1.83335,2.791178 -0.19605,11.980811 -0.91506,4.14353 -2.35899,11.064289 -3.20875,15.379462 -2.2846,11.601783 -3.38359,12.733213 -13.87978,14.289553 -5.83351,0.86498 -23.58341,1.5481 -26.883072,1.03463 z M 84.716948,67.790488 c 0.0011,-2.329981 1.570062,-10.467914 2.839837,-14.731579 4.867667,-16.344708 14.399685,-29.213804 27.457845,-37.070626 13.22938,-7.9598178 31.53963,-9.9313832 52.09099,-5.608882 5.78993,1.217774 6.1894,1.802642 6.39706,9.365884 0.15427,5.619595 -0.79225,10.091329 -2.13608,10.091329 -0.29088,0 -3.07162,-0.885069 -6.17941,-1.96683 -8.91596,-3.103442 -14.20186,-3.934389 -25.19836,-3.961258 -11.0453,-0.027 -16.19451,0.825484 -24.00154,3.973535 -6.25738,2.523181 -11.05827,5.694758 -15.21949,10.054349 -6.210336,6.506356 -10.105152,13.66246 -13.145451,24.152679 -1.749827,6.037553 -2.906858,8.308034 -2.905401,5.701399 z M 110.51007,23.461042 c 7.12592,-4.612482 13.85356,-7.152225 22.99505,-8.680784 7.67294,-1.283016 20.8509,-0.889033 29.89359,0.893704 3.52161,0.69427 6.54239,1.122856 6.71284,0.952412 0.67634,-0.676337 -0.4841,-2.576253 -1.93836,-3.173591 -2.77849,-1.14124 -9.35011,-2.314384 -16.7854,-2.996484 -8.35763,-0.7667111 -16.3783,-0.143983 -23.58883,1.831696 -5.64862,1.547651 -13.58496,5.449622 -18.18454,8.940576 -4.21471,3.198831 -10.288835,9.639797 -9.814547,10.407237 0.172266,0.278667 1.887167,-0.951277 3.810977,-2.733222 1.9238,-1.781944 5.02847,-4.230626 6.89922,-5.441544 z"
       id="path27"
       sodipodi:nodetypes="ssssccsssssssssssssssssssssssssssscssssssssssssssssssssssscsssssssssscsssssssssss" />
    <text
       xml:space="preserve"
       style="font-style:normal;font-weight:normal;font-size:14.8752px;line-height:1.25;font-family:sans-serif;fill:#ffffff;fill-opacity:1;stroke:none;stroke-width:0.37188"
       x="3.1587031"
       y="138.61307"
       id="text31"><tspan
         sodipodi:role="line"
         id="tspan29"
         x="3.1587031"
         y="138.61307"
         style="fill:#ffffff;stroke-width:0.37188">ADVOCACIA-GERAL DA UNIÃO</tspan></text>
  </g>
</svg>
